<svg xmlns="http://www.w3.org/2000/svg" width="16.018" height="16.018" viewBox="0 0 16.018 16.018"><path d="M13.348,2.828V1.335A1.337,1.337,0,0,0,12.013,0H1.335A1.337,1.337,0,0,0,0,1.335V7.208A1.332,1.332,0,0,0,1.2,8.529l1,2.6a1.335,1.335,0,0,0,1.725.766l6.267-2.414a3.859,3.859,0,0,0,.333,3.427l.153.245v2.593a.267.267,0,0,0,.267.267h4.805a.267.267,0,0,0,.267-.267V6.939A3.494,3.494,0,0,0,15,4.478Zm0,1.6.81,2.1a.8.8,0,0,1-.46,1.035l-.463.179a1.335,1.335,0,0,0,.113-.534ZM.534,7.208V1.335a.8.8,0,0,1,.8-.8H12.013a.8.8,0,0,1,.8.8v1.7h0l0,.006v4.17a.811.811,0,0,1-.018.138L10.351,4.9A1.424,1.424,0,0,0,8.3,6.87L9.338,8.009h-8A.8.8,0,0,1,.534,7.208Zm3.42,1.335-1.9.731-.281-.731ZM3.734,11.4A.8.8,0,0,1,2.7,10.942l-.45-1.171L5.435,8.543v0H9.827l.347.378Zm11.75,4.082H11.212V13.348h4.271Zm0-2.67h-4.39l-.116-.185A3.329,3.329,0,0,1,10.91,9.21a.267.267,0,0,0-.035-.313L8.688,6.511A.89.89,0,0,1,9.973,5.279l4.254,4.253.377-.377-.988-.988.274-.107a1.335,1.335,0,0,0,.765-1.725l-.9-2.346.865.867a2.956,2.956,0,0,1,.866,2.083Zm0,0" fill="#e8a798"/><path d="M64.476,65.17a.694.694,0,0,0,.694-.694V63.194a.694.694,0,0,0-.694-.694H63.194a.694.694,0,0,0-.694.694v1.281a.694.694,0,0,0,.694.694Zm-1.442-.694V64.1h.534v-.534h-.534v-.374a.16.16,0,0,1,.16-.16h1.281a.16.16,0,0,1,.16.16v.374H64.1V64.1h.534v.374a.16.16,0,0,1-.16.16H63.194A.16.16,0,0,1,63.034,64.476Zm0,0" transform="translate(-61.432 -61.432)" fill="#e8a798"/><path d="M78.125,265.625h1.068v.534H78.125Zm0,0" transform="translate(-76.79 -261.087)" fill="#e8a798"/><path d="M78.125,359.375h1.068v.534H78.125Zm0,0" transform="translate(-76.79 -353.235)" fill="#e8a798"/><path d="M359.375,359.375h1.068v.534h-1.068Zm0,0" transform="translate(-353.235 -353.235)" fill="#e8a798"/><path d="M171.875,265.625h1.068v.534h-1.068Zm0,0" transform="translate(-168.938 -261.087)" fill="#e8a798"/><path d="M265.625,265.625h1.068v.534h-1.068Zm0,0" transform="translate(-261.087 -261.087)" fill="#e8a798"/><path d="M359.375,265.625h1.068v.534h-1.068Zm0,0" transform="translate(-353.235 -261.087)" fill="#e8a798"/><path d="M656.25,78.125h.534v.8h-.534Zm0,0" transform="translate(-645.038 -76.79)" fill="#e8a798"/><path d="M593.75,78.125h.534v.8h-.534Zm0,0" transform="translate(-583.605 -76.79)" fill="#e8a798"/><path d="M531.25,78.125h.534v.8h-.534Zm0,0" transform="translate(-522.173 -76.79)" fill="#e8a798"/><path d="M468.75,78.125h.534v.8h-.534Zm0,0" transform="translate(-460.741 -76.79)" fill="#e8a798"/><path d="M687.5,812.5h.534v.534H687.5Zm0,0" transform="translate(-675.754 -798.618)" fill="#e8a798"/></svg>