<svg xmlns="http://www.w3.org/2000/svg" width="12.936" height="15.928" viewBox="0 0 12.936 15.928"><g transform="translate(0.003 -2.999)"><path d="M222.771,154.7a.373.373,0,0,0-.373.373v7.05a.373.373,0,0,0,.746,0v-7.05A.373.373,0,0,0,222.771,154.7Zm0,0" transform="translate(-214.106 -148.934)" fill="#e8a798"/><path d="M104.771,154.7a.373.373,0,0,0-.373.373v7.05a.373.373,0,1,0,.746,0v-7.05A.373.373,0,0,0,104.771,154.7Zm0,0" transform="translate(-100.507 -148.934)" fill="#e8a798"/><path d="M1.056,4.741v9.19A2.058,2.058,0,0,0,1.6,15.35a1.837,1.837,0,0,0,1.333.576H9.994a1.836,1.836,0,0,0,1.333-.576,2.058,2.058,0,0,0,.547-1.419V4.741a1.425,1.425,0,0,0-.366-2.8H9.6V1.472A1.465,1.465,0,0,0,8.121,0H4.809A1.465,1.465,0,0,0,3.332,1.472v.466H1.422a1.425,1.425,0,0,0-.366,2.8ZM9.994,15.18H2.936A1.181,1.181,0,0,1,1.8,13.931V4.773h9.325v9.157A1.181,1.181,0,0,1,9.994,15.18ZM4.078,1.472A.719.719,0,0,1,4.809.745H8.121a.719.719,0,0,1,.731.727v.466H4.078ZM1.422,2.684H11.508a.671.671,0,1,1,0,1.343H1.422a.671.671,0,1,1,0-1.343Zm0,0" transform="translate(0 3)" fill="#e8a798"/><path d="M163.771,154.7a.373.373,0,0,0-.373.373v7.05a.373.373,0,0,0,.746,0v-7.05A.373.373,0,0,0,163.771,154.7Zm0,0" transform="translate(-157.307 -148.934)" fill="#e8a798"/></g></svg>