<svg xmlns="http://www.w3.org/2000/svg" width="16.002" height="16" viewBox="0 0 16.002 16"><path d="M14.966,1.064a3.529,3.529,0,0,0-4.995,0L.813,10.218a.458.458,0,0,0-.13.263L0,15.506a.457.457,0,0,0,.13.385.466.466,0,0,0,.324.136.371.371,0,0,0,.061,0l3.028-.409a.461.461,0,0,0-.123-.914L1,15.029l.474-3.5L5.16,15.213a.466.466,0,0,0,.324.136.451.451,0,0,0,.324-.136l9.158-9.155a3.527,3.527,0,0,0,0-4.995ZM10.148,2.189l1.538,1.538L3.329,12.083,1.791,10.545ZM5.487,14.238l-1.5-1.5L12.34,4.378l1.5,1.5Zm9-9.015L10.806,1.544a2.613,2.613,0,0,1,3.679,3.679Z" transform="translate(0 -0.028)" fill="#e8a798"/></svg>