<svg xmlns="http://www.w3.org/2000/svg" width="20.803" height="11.791" viewBox="0 0 20.803 11.791">
  <g id="eye" transform="translate(0.002 -110.897)">
    <g id="Group_88" data-name="Group 88" transform="translate(-0.002 110.897)">
      <g id="Group_87" data-name="Group 87">
        <path id="Path_243" data-name="Path 243" d="M20.464,115.813a12.876,12.876,0,0,0-4.373-3.581,12.617,12.617,0,0,0-5.53-1.334c-.053,0-.268,0-.322,0a12.618,12.618,0,0,0-5.53,1.334,12.876,12.876,0,0,0-4.373,3.581,1.591,1.591,0,0,0,0,1.959,12.876,12.876,0,0,0,4.373,3.581,12.617,12.617,0,0,0,5.53,1.334c.053,0,.268,0,.322,0a12.618,12.618,0,0,0,5.53-1.334,12.876,12.876,0,0,0,4.373-3.581A1.59,1.59,0,0,0,20.464,115.813ZM5.087,120.6A12.025,12.025,0,0,1,1,117.252a.745.745,0,0,1,0-.918,11.937,11.937,0,0,1,5.459-3.926,5.888,5.888,0,0,0,0,8.771A11.939,11.939,0,0,1,5.087,120.6Zm5.313,1.248a5.051,5.051,0,1,1,5.051-5.051A5.056,5.056,0,0,1,10.4,121.843Zm9.4-4.592a11.917,11.917,0,0,1-5.458,3.925,5.888,5.888,0,0,0,0-8.77,11.944,11.944,0,0,1,5.459,3.927A.745.745,0,0,1,19.8,117.252Z" transform="translate(0.002 -110.897)" fill="#e8a798"/>
      </g>
    </g>
    <g id="Group_90" data-name="Group 90" transform="translate(8.239 114.631)">
      <g id="Group_89" data-name="Group 89">
        <path id="Path_244" data-name="Path 244" d="M204.966,202.8a2.161,2.161,0,1,0,2.161,2.161A2.164,2.164,0,0,0,204.966,202.8Zm0,3.476a1.315,1.315,0,1,1,1.315-1.315A1.317,1.317,0,0,1,204.966,206.28Z" transform="translate(-202.805 -202.804)" fill="#e8a798"/>
      </g>
    </g>
  </g>
</svg>
