<svg xmlns="http://www.w3.org/2000/svg" width="30.243" height="30.241" viewBox="0 0 30.243 30.241"><g transform="translate(0 -0.023)"><g transform="translate(9.023 22.696)"><path d="M153.92,384.332a.616.616,0,0,0-.034-.111.6.6,0,0,0-.054-.1.573.573,0,0,0-.163-.163.585.585,0,0,0-.1-.054.554.554,0,0,0-.11-.034.583.583,0,0,0-.23,0,.572.572,0,0,0-.111.034.6.6,0,0,0-.1.054.573.573,0,0,0-.163.163.557.557,0,0,0-.054.1.573.573,0,0,0-.034.111.567.567,0,0,0,0,.23.554.554,0,0,0,.034.11.546.546,0,0,0,.054.1.574.574,0,0,0,.163.163.6.6,0,0,0,.1.054.572.572,0,0,0,.111.034.569.569,0,0,0,.23,0,.554.554,0,0,0,.11-.034.586.586,0,0,0,.1-.054.574.574,0,0,0,.163-.163.583.583,0,0,0,.054-.1.6.6,0,0,0,.034-.11.568.568,0,0,0,0-.23Z" transform="translate(-152.75 -383.857)" fill="#fff"/></g><g transform="translate(0 18.329)"><path d="M27.171,314.946l-.007-.018a2.457,2.457,0,0,0-3.328-1.227l-4.115,1.138a2.7,2.7,0,0,0-1.671-1.645l-.016-.006-4.524-1.535a4.666,4.666,0,0,0-3.764-1.732,4.724,4.724,0,0,0-3.689,2.213H.591a.591.591,0,0,0-.591.591v7.447a.591.591,0,0,0,.591.591H4.1a.591.591,0,0,0,.591-.591v-.51H6.34a.591.591,0,0,0,.591-.591v-.17a4.188,4.188,0,0,1,2.158.774,35.764,35.764,0,0,0,3.549,1.812l.026.011a5.3,5.3,0,0,0,1.9.358,4.709,4.709,0,0,0,1.957-.419l9.1-3.257.048-.02A2.521,2.521,0,0,0,27.171,314.946ZM3.512,319.582H1.181v-6.266H3.512Zm2.238-1.1H4.693v-5.165H5.75Zm19.443-1.4L16.1,320.334l-.027.01-.024.01a3.829,3.829,0,0,1-2.942.05,34.228,34.228,0,0,1-3.43-1.752,5.316,5.316,0,0,0-2.748-.935V312.96A3.648,3.648,0,0,1,9.748,311.1a3.409,3.409,0,0,1,2.892,1.358.591.591,0,0,0,.313.25l4.695,1.593a1.325,1.325,0,0,1,.964,1.564,1.151,1.151,0,0,1-1.414.794L11.9,314.986a.591.591,0,0,0-.357,1.126l5.3,1.68.017.005a2.319,2.319,0,0,0,1.773-.206,2.317,2.317,0,0,0,1.108-1.4q.02-.072.036-.144l4.435-1.229c.641-.219,1.481-.3,1.856.565C26.462,316.4,25.454,316.953,25.193,317.078Z" transform="translate(0 -309.922)" fill="#fff"/></g><g transform="translate(20.039 7.317)"><path d="M340.42,123.973a.577.577,0,0,0-.034-.111.6.6,0,0,0-.128-.191.568.568,0,0,0-.09-.073.6.6,0,0,0-.1-.054.588.588,0,0,0-.341-.034.555.555,0,0,0-.11.034.582.582,0,0,0-.1.054.573.573,0,0,0-.163.163.6.6,0,0,0-.054.1.571.571,0,0,0-.034.111.566.566,0,0,0,0,.23.554.554,0,0,0,.034.11.583.583,0,0,0,.054.1.573.573,0,0,0,.163.163.583.583,0,0,0,.1.054.6.6,0,0,0,.11.034.582.582,0,0,0,.115.012.593.593,0,0,0,.116-.012.626.626,0,0,0,.11-.034.6.6,0,0,0,.1-.054.574.574,0,0,0,.163-.163.545.545,0,0,0,.054-.1.56.56,0,0,0,.034-.11.6.6,0,0,0,0-.23Z" transform="translate(-339.25 -123.498)" fill="#fff"/></g><g transform="translate(1.754 0.023)"><g transform="translate(0 0)"><path d="M57.59,2.024H54.078a.591.591,0,0,0-.591.591v.51H51.84a.591.591,0,0,0-.591.591v.17a4.188,4.188,0,0,1-2.158-.774A35.743,35.743,0,0,0,45.543,1.3l-.026-.011a5.025,5.025,0,0,0-3.857.061L39.283,2.2l-2-2a.591.591,0,0,0-.835,0L29.866,6.774a.586.586,0,0,0,0,.835l11.24,11.24a.638.638,0,0,0,.835,0l6.005-6.005c.156.013.318.021.486.021a4.723,4.723,0,0,0,3.689-2.212H57.59a.591.591,0,0,0,.591-.591V2.614A.591.591,0,0,0,57.59,2.024ZM36.861,1.449,38.208,2.8a2.575,2.575,0,0,1-2.693,0Zm-4.4,7.089L31.119,7.192l1.346-1.346a2.575,2.575,0,0,1,0,2.693ZM41.524,17.6,40.178,16.25a2.572,2.572,0,0,1,2.692,0Zm2.2-2.2a3.754,3.754,0,0,0-4.394,0l-6.01-6.01a3.754,3.754,0,0,0,0-4.395l1.348-1.348a3.754,3.754,0,0,0,4.395,0l1.278,1.278a2.341,2.341,0,0,0-1.758,1.288A3.367,3.367,0,1,0,42.45,10.38l1.994.677a3.771,3.771,0,0,0,.626,2.994ZM40.13,9.592l.016.006,1.181.4A2.186,2.186,0,1,1,38.36,7.5,2.615,2.615,0,0,0,40.13,9.592ZM45.921,13.2a2.584,2.584,0,0,1-.377-1.228,4.593,4.593,0,0,0,1.042.564Zm5.328-3.373a3.648,3.648,0,0,1-2.816,1.857,4.3,4.3,0,0,1-.616-.043h0a3.383,3.383,0,0,1-2.188-1.2c-.012-.018-.063-.085-.071-.1a.589.589,0,0,0-.326-.271l-4.7-1.594a1.326,1.326,0,0,1-.964-1.563h0a1.151,1.151,0,0,1,1.414-.792L46.276,7.8a.591.591,0,1,0,.357-1.126L42.424,5.341,42.387,5.3h0L40.207,3.124l1.873-.671.02-.008.006,0,.024-.01a3.828,3.828,0,0,1,2.942-.05A34.216,34.216,0,0,1,48.5,4.134a5.316,5.316,0,0,0,2.748.935Zm2.238-.355H52.43V4.306h1.056Zm3.512,0H54.668V3.205H57Z" transform="translate(-29.691 -0.023)" fill="#fff"/></g></g></g></svg>