<svg id="payment-method" xmlns="http://www.w3.org/2000/svg" width="19.691" height="19.69" viewBox="0 0 19.691 19.69">
  <g id="Group_18" data-name="Group 18" transform="translate(5.875 14.762)">
    <g id="Group_17" data-name="Group 17">
      <path id="Path_199" data-name="Path 199" d="M153.511,384.166a.4.4,0,0,0-.022-.072.389.389,0,0,0-.035-.066.372.372,0,0,0-.106-.106.381.381,0,0,0-.067-.035.363.363,0,0,0-.072-.022.381.381,0,0,0-.15,0,.374.374,0,0,0-.072.022.392.392,0,0,0-.066.035.372.372,0,0,0-.106.106.363.363,0,0,0-.035.066.373.373,0,0,0-.022.072.37.37,0,0,0,0,.15.359.359,0,0,0,.022.072.356.356,0,0,0,.035.067.373.373,0,0,0,.106.106.39.39,0,0,0,.066.035.37.37,0,0,0,.072.022.371.371,0,0,0,.15,0,.359.359,0,0,0,.072-.022.381.381,0,0,0,.067-.035.373.373,0,0,0,.106-.106.38.38,0,0,0,.035-.067.386.386,0,0,0,.022-.072.37.37,0,0,0,0-.15Z" transform="translate(-152.75 -383.857)" fill="#e8a798"/>
    </g>
  </g>
  <g id="Group_20" data-name="Group 20" transform="translate(0 11.919)">
    <g id="Group_19" data-name="Group 19">
      <path id="Path_200" data-name="Path 200" d="M17.691,313.193l0-.011a1.6,1.6,0,0,0-2.167-.8l-2.679.741a1.756,1.756,0,0,0-1.088-1.071l-.01,0-2.945-1a3.038,3.038,0,0,0-2.451-1.128,3.076,3.076,0,0,0-2.4,1.441H.385a.385.385,0,0,0-.385.385V316.6a.385.385,0,0,0,.385.385H2.671a.385.385,0,0,0,.385-.385v-.332H4.128a.385.385,0,0,0,.385-.385v-.111a2.727,2.727,0,0,1,1.4.5,23.285,23.285,0,0,0,2.311,1.18l.017.007a3.452,3.452,0,0,0,1.237.233,3.066,3.066,0,0,0,1.274-.273l5.922-2.121.031-.013A1.642,1.642,0,0,0,17.691,313.193Zm-15.4,3.018H.769v-4.08H2.287Zm1.457-.717H3.056v-3.363h.688Zm12.659-.913-5.92,2.12-.017.007-.016.007a2.493,2.493,0,0,1-1.915.033A22.285,22.285,0,0,1,6.3,315.606,3.461,3.461,0,0,0,4.513,315v-3.1a2.375,2.375,0,0,1,1.834-1.209,2.219,2.219,0,0,1,1.883.884.385.385,0,0,0,.2.163l3.057,1.037a.863.863,0,0,1,.628,1.018.749.749,0,0,1-.921.517l-3.446-1.092a.385.385,0,0,0-.232.733l3.452,1.094.011,0a1.51,1.51,0,0,0,1.154-.134,1.508,1.508,0,0,0,.721-.911q.013-.047.023-.093l2.888-.8c.417-.142.965-.194,1.208.368C17.229,314.138,16.573,314.5,16.4,314.581Z" transform="translate(0 -309.922)" fill="#e8a798"/>
    </g>
  </g>
  <g id="Group_22" data-name="Group 22" transform="translate(13.047 4.749)">
    <g id="Group_21" data-name="Group 21">
      <path id="Path_201" data-name="Path 201" d="M340.012,123.807a.375.375,0,0,0-.022-.072.392.392,0,0,0-.083-.125.369.369,0,0,0-.058-.048.391.391,0,0,0-.066-.035.383.383,0,0,0-.222-.022.362.362,0,0,0-.072.022.379.379,0,0,0-.067.035.371.371,0,0,0-.058.048.366.366,0,0,0-.048.058.392.392,0,0,0-.035.066.377.377,0,0,0-.022.222.365.365,0,0,0,.022.072.381.381,0,0,0,.035.067.366.366,0,0,0,.048.058.37.37,0,0,0,.058.048.38.38,0,0,0,.067.035.39.39,0,0,0,.072.022.379.379,0,0,0,.075.008.386.386,0,0,0,.075-.008.41.41,0,0,0,.072-.022.392.392,0,0,0,.066-.035.369.369,0,0,0,.058-.048.365.365,0,0,0,.048-.058.353.353,0,0,0,.035-.067.364.364,0,0,0,.022-.072.389.389,0,0,0,0-.15Z" transform="translate(-339.25 -123.498)" fill="#e8a798"/>
    </g>
  </g>
  <g id="Group_24" data-name="Group 24" transform="translate(1.142)">
    <g id="Group_23" data-name="Group 23" transform="translate(0 0)">
      <path id="Path_202" data-name="Path 202" d="M47.856,1.326H45.569a.385.385,0,0,0-.385.385v.332H44.112a.385.385,0,0,0-.385.385v.111a2.727,2.727,0,0,1-1.4-.5A23.272,23.272,0,0,0,40.012.854L40,.847a3.272,3.272,0,0,0-2.511.039l-1.548.554-1.3-1.3a.385.385,0,0,0-.544,0L29.8,4.419a.381.381,0,0,0,0,.544l7.318,7.318a.416.416,0,0,0,.544,0l3.91-3.91c.1.009.207.014.316.014a3.075,3.075,0,0,0,2.4-1.441h3.56a.385.385,0,0,0,.385-.385V1.71A.385.385,0,0,0,47.856,1.326ZM34.36.952l.877.877a1.677,1.677,0,0,1-1.753,0ZM31.5,5.567l-.877-.877.877-.877a1.677,1.677,0,0,1,0,1.753Zm5.9,5.9-.876-.876a1.674,1.674,0,0,1,1.753,0Zm1.431-1.43a2.444,2.444,0,0,0-2.861,0L32.051,6.121a2.444,2.444,0,0,0,0-2.861l.878-.877a2.444,2.444,0,0,0,2.861,0l.832.832a1.524,1.524,0,0,0-1.144.839A2.192,2.192,0,1,0,38,6.766l1.3.441A2.455,2.455,0,0,0,39.7,9.156ZM36.487,6.254l.01,0,.769.261a1.423,1.423,0,1,1-1.932-1.626A1.7,1.7,0,0,0,36.487,6.254ZM40.258,8.6a1.682,1.682,0,0,1-.246-.8,2.99,2.99,0,0,0,.678.367Zm3.469-2.2a2.375,2.375,0,0,1-1.834,1.209,2.8,2.8,0,0,1-.4-.028h0a2.2,2.2,0,0,1-1.425-.78l-.046-.063a.383.383,0,0,0-.212-.176L36.75,5.531a.863.863,0,0,1-.628-1.018h0A.749.749,0,0,1,37.043,4l3.446,1.092a.385.385,0,1,0,.232-.733l-2.74-.868-.024-.024h0L36.538,2.042l1.219-.437L37.77,1.6l0,0,.016-.007a2.493,2.493,0,0,1,1.915-.033A22.278,22.278,0,0,1,41.938,2.7a3.461,3.461,0,0,0,1.789.609Zm1.457-.231H44.5V2.812h.688Zm2.287,0H45.954V2.095h1.518Z" transform="translate(-29.691 -0.023)" fill="#e8a798"/>
    </g>
  </g>
</svg>
