<svg xmlns="http://www.w3.org/2000/svg" width="23.667" height="20.512" viewBox="0 0 23.667 20.512"><g transform="translate(0 -36.54)"><g transform="translate(0 36.54)"><path d="M22.743,40.62a3.04,3.04,0,0,0-2.231-.924H17.75l-.629-1.676a2.29,2.29,0,0,0-.857-1.042,2.2,2.2,0,0,0-1.276-.438H8.678a2.2,2.2,0,0,0-1.276.438,2.29,2.29,0,0,0-.857,1.042L5.917,39.7H3.156a3.041,3.041,0,0,0-2.231.924A3.04,3.04,0,0,0,0,42.851V53.9a3.04,3.04,0,0,0,.924,2.231,3.04,3.04,0,0,0,2.231.925H20.511A3.157,3.157,0,0,0,23.667,53.9V42.851A3.04,3.04,0,0,0,22.743,40.62ZM15.735,52.275a5.318,5.318,0,0,1-3.9,1.621,5.318,5.318,0,0,1-3.9-1.621,5.505,5.505,0,0,1,0-7.8,5.318,5.318,0,0,1,3.9-1.621,5.318,5.318,0,0,1,3.9,1.621,5.505,5.505,0,0,1,0,7.8Z" transform="translate(0 -36.54)" fill="#e8a798"/><path d="M195.406,228.4a3.557,3.557,0,1,0,2.508,1.042A3.419,3.419,0,0,0,195.406,228.4Z" transform="translate(-183.573 -220.119)" fill="#e8a798"/></g></g></svg>