<svg xmlns="http://www.w3.org/2000/svg" width="76" height="60.177" viewBox="0 0 76 60.177">
  <defs>
    <style>
      .cls-1, .cls-2 {
        fill: #303030;
      }

      .cls-2 {
        font-size: 14px;
        font-family: Arial, Helvetica, sans-serif;
      }

      .cls-3 {
        fill: #e8a798;
      }
    </style>
  </defs>
  <g id="Group_62" data-name="Group 62" transform="translate(-23 -18.782)">
    <g id="hanger" transform="translate(25.343 18.782)">
      <g id="Group_1" data-name="Group 1">
        <path id="Path_198" data-name="Path 198" class="cls-1" d="M70.334,131.9l-32.2-17.01v-2.148l.042-.011c5.073-1.256,8.145-4.554,8.742-8.391s-1.2-6.053-2.945-6.729a6.687,6.687,0,0,0-6.241,1.128,7.033,7.033,0,0,0-6.056-1.128c-2.086.737-3.486,3.6-3.238,6.387s1.684,5.512,3.4,4.906a1.254,1.254,0,0,0,.673-1.857h0a6.991,6.991,0,0,1-1.184-3.548c-.16-1.4,1.679-5.79,6.406-1.934,4.652-3.541,6.439-.433,6.241,1.934a7.337,7.337,0,0,1-1.6,3.548,10.37,10.37,0,0,1-4.934,2.764s-2.317.673-2.357.687v.531h0v3.86L2.892,131.9A5.091,5.091,0,0,0,0,136.383c0,2.851,2.577,5.162,5.754,5.162H67.472c3.178,0,5.752-2.311,5.752-5.162A5.089,5.089,0,0,0,70.334,131.9Zm-2.863,6.588H5.754c-1.464,0-2.7-.965-2.7-2.109a2.065,2.065,0,0,1,1.238-1.77l.013,0,.013-.009L36.61,117.54l32.3,17.06.013.009.013,0a2.065,2.065,0,0,1,1.238,1.77C70.173,137.527,68.935,138.492,67.472,138.492Z" transform="translate(0 -97.282)"/>
      </g>
    </g>
    <text id="PRELOVED" class="cls-2" transform="translate(23 75.959)"><tspan x="0" y="0">PRE</tspan><tspan class="cls-3" y="0">LOVED</tspan></text>
  </g>
</svg>
