<svg xmlns="http://www.w3.org/2000/svg" width="16" height="16" viewBox="0 0 16 16">
  <g id="Group_97" data-name="Group 97" transform="translate(-878 -412)">
    <path id="Path_245" data-name="Path 245" d="M24.443,26H11.756a.6.6,0,0,0-.087-.029A1.808,1.808,0,0,1,10.2,24.718c-.042-.121-.065-.25-.1-.374V11.657a.559.559,0,0,0,.029-.088,1.814,1.814,0,0,1,1.417-1.518c.07-.02.14-.034.209-.051H22.662a2.41,2.41,0,0,1,1.135.681q.806.771,1.58,1.577a2.507,2.507,0,0,1,.723,1.18V24.345a.6.6,0,0,0-.029.087,1.812,1.812,0,0,1-1.417,1.518C24.583,25.967,24.511,25.984,24.443,26ZM18.1,25.388h5.451a.629.629,0,0,0,.705-.7V18.7a.632.632,0,0,0-.7-.707H12.637a.63.63,0,0,0-.7.694v6a.968.968,0,0,0,.018.217.624.624,0,0,0,.689.482Zm-.313-9.228h3.889a.646.646,0,0,0,.738-.735V11.349a.642.642,0,0,0-.736-.735H13.9a.64.64,0,0,0-.731.725q0,2.045,0,4.091a.644.644,0,0,0,.73.73Z" transform="translate(867.9 402)" fill="#e8a798"/>
    <path id="Path_246" data-name="Path 246" d="M576.4,86.1h1.807v4.279H576.4Z" transform="translate(310.845 327.142)" fill="#e8a798"/>
  </g>
</svg>
