<svg xmlns="http://www.w3.org/2000/svg" width="15.851" height="15.978" viewBox="0 0 15.851 15.978"><g transform="translate(-2.237 -1.998)"><path d="M39.812,20.87a1.09,1.09,0,0,0-1.26.81l-.629,2.343a1.063,1.063,0,0,0-1.118-.034l-1.821,1.068A2.406,2.406,0,0,0,33.8,27.125v2.021h-.533a.266.266,0,0,0-.266.266v2.13a.266.266,0,0,0,.266.266H38.06a.266.266,0,0,0,.266-.266v-2.13a.266.266,0,0,0-.266-.266h-.533v-.309a.8.8,0,0,1,.279-.607l1.242-1.065a1.327,1.327,0,0,0,.42-.666l1.155-4.312a1.052,1.052,0,0,0,.036-.277A1.07,1.07,0,0,0,39.812,20.87ZM37.793,31.276H33.533v-1.6h4.261Zm2.315-9.227-1.156,4.312a.8.8,0,0,1-.252.4l-1.242,1.065a1.331,1.331,0,0,0-.465,1.011v.309H34.331V27.125a1.871,1.871,0,0,1,.921-1.608l1.819-1.067a.535.535,0,0,1,.266-.071.525.525,0,0,1,.476.293.559.559,0,0,1-.243.722l-1.491.859a.267.267,0,0,0,.266.462l1.491-.859a1.087,1.087,0,0,0,.5-1.307l.733-2.73a.565.565,0,0,1,.636-.426.534.534,0,0,1,.423.517.525.525,0,0,1-.018.139Z" transform="translate(-22.571 -13.833)" fill="#e8a798"/><path d="M9.63,29.145H9.1V27.124a2.406,2.406,0,0,0-1.184-2.067L6.091,23.988a1.064,1.064,0,0,0-1.118.035l-.629-2.343a1.092,1.092,0,0,0-1.26-.81,1.067,1.067,0,0,0-.811,1.317L3.428,26.5a1.325,1.325,0,0,0,.419.666L5.09,28.229a.8.8,0,0,1,.28.607v.309H4.837a.266.266,0,0,0-.266.266v2.13a.266.266,0,0,0,.266.266H9.63a.266.266,0,0,0,.266-.266v-2.13A.266.266,0,0,0,9.63,29.145Zm-4.193-1.32L4.2,26.76a.793.793,0,0,1-.252-.4L2.788,22.048a.525.525,0,0,1-.018-.138.534.534,0,0,1,.424-.52.566.566,0,0,1,.636.426l.733,2.729a1.087,1.087,0,0,0,.5,1.307l1.491.859a.267.267,0,1,0,.266-.462l-1.491-.859a.559.559,0,0,1-.243-.722.526.526,0,0,1,.475-.291.533.533,0,0,1,.265.07l1.821,1.069a1.87,1.87,0,0,1,.921,1.608v2.021H5.9v-.309a1.332,1.332,0,0,0-.465-1.011Zm3.927,3.45H5.1v-1.6H9.364Z" transform="translate(0 -13.832)" fill="#e8a798"/><path d="M24.522,5.62V2.265a.266.266,0,0,0-.4-.231l-.379.217a2.923,2.923,0,0,1-2.763.077l-.6-.3a.266.266,0,0,0-.238,0l-.6.3a2.923,2.923,0,0,1-2.764-.076L16.4,2.034a.266.266,0,0,0-.4.231V5.62a6.646,6.646,0,0,0,3.524,5.874l.611.326a.266.266,0,0,0,.251,0L21,11.494A6.645,6.645,0,0,0,24.522,5.62Zm-4.261,5.663-.485-.259a6.114,6.114,0,0,1-3.243-5.4v-2.9a3.454,3.454,0,0,0,3.247.08l.479-.24.483.241a3.454,3.454,0,0,0,3.247-.081v2.9a6.113,6.113,0,0,1-3.243,5.4Z" transform="translate(-10.098)" fill="#e8a798"/><path d="M26.391,7.154a.266.266,0,0,0-.322-.26,4.027,4.027,0,0,1-2.629-.331L23.314,6.5a.266.266,0,0,0-.24,0l-.123.062a4.026,4.026,0,0,1-2.63.332.266.266,0,0,0-.321.26V8.9a5.582,5.582,0,0,0,2.961,4.934l.109.059a.266.266,0,0,0,.251,0l.11-.059A5.582,5.582,0,0,0,26.391,8.9ZM25.859,8.9A5.05,5.05,0,0,1,23.2,13.358,5.05,5.05,0,0,1,20.533,8.9V7.471a4.565,4.565,0,0,0,2.658-.433l0,0,.006,0a4.559,4.559,0,0,0,2.657.433Z" transform="translate(-13.033 -3.282)" fill="#e8a798"/><path d="M28.5,13.714l-2.039,2.039-.831-.831a.266.266,0,1,0-.377.377l1.02,1.02a.266.266,0,0,0,.377,0l2.227-2.227a.266.266,0,1,0-.377-.377Z" transform="translate(-16.827 -8.539)" fill="#e8a798"/></g></svg>