<svg xmlns="http://www.w3.org/2000/svg" width="14.003" height="15.871" viewBox="0 0 14.003 15.871"><g transform="translate(-28.8)"><g transform="translate(28.8)"><path d="M147.241,98.695a.32.32,0,0,0,.321-.321V86.7l2.4,2.4a.321.321,0,1,0,.454-.454l-2.945-2.945a.321.321,0,0,0-.454,0l-2.945,2.945a.321.321,0,0,0,.454.454l2.4-2.4V98.374A.32.32,0,0,0,147.241,98.695Z" transform="translate(-140.24 -82.824)" fill="#e8a798"/><path d="M42.482,3.973a.32.32,0,0,0,.321-.321V.321A.32.32,0,0,0,42.482,0H29.121A.32.32,0,0,0,28.8.321V3.655a.321.321,0,0,0,.642,0V.642H42.161V3.655A.319.319,0,0,0,42.482,3.973Z" transform="translate(-28.8)" fill="#e8a798"/></g></g></svg>